<svg xmlns="http://www.w3.org/2000/svg" xmlns:xlink="http://www.w3.org/1999/xlink" width="500" zoomAndPan="magnify" viewBox="0 0 375 374.999991" height="500" preserveAspectRatio="xMidYMid meet" version="1.0"><defs><g/><clipPath id="fa3de9110a"><path d="M 118.03125 79.757812 L 256.78125 79.757812 L 256.78125 148.226562 L 118.03125 148.226562 Z M 118.03125 79.757812 " clip-rule="nonzero"/></clipPath><clipPath id="e5e7281392"><path d="M 171 193 L 209 193 L 209 229.738281 L 171 229.738281 Z M 171 193 " clip-rule="nonzero"/></clipPath><clipPath id="a22c9f0e5a"><path d="M 164.484375 152.042969 L 248.480469 152.042969 L 248.480469 229.722656 L 164.484375 229.722656 Z M 164.484375 152.042969 " clip-rule="nonzero"/></clipPath></defs><rect x="-37.5" width="450" fill="#ffffff" y="-37.499999" height="449.999989" fill-opacity="1"/><rect x="-37.5" width="450" fill="#ff7f11" y="-37.499999" height="449.999989" fill-opacity="1"/><g clip-path="url(#fa3de9110a)"><path fill="#ffffff" d="M 256.433594 145.210938 L 220.886719 111.109375 L 188.714844 80.246094 C 188.628906 80.164062 188.539062 80.089844 188.441406 80.03125 C 187.773438 79.605469 186.882812 79.675781 186.289062 80.246094 L 163.523438 102.085938 L 163.523438 92.480469 L 165.039062 92.480469 C 166.003906 92.480469 166.789062 91.695312 166.789062 90.730469 L 166.789062 81.507812 C 166.789062 80.539062 166.003906 79.757812 165.039062 79.757812 L 138.019531 79.757812 C 137.054688 79.757812 136.269531 80.539062 136.269531 81.507812 L 136.269531 90.730469 C 136.269531 91.695312 137.054688 92.480469 138.019531 92.480469 L 139.535156 92.480469 L 139.535156 125.097656 L 118.570312 145.210938 C 117.871094 145.882812 117.847656 146.988281 118.519531 147.6875 C 118.863281 148.046875 119.320312 148.226562 119.78125 148.226562 C 120.21875 148.226562 120.65625 148.0625 120.996094 147.738281 L 142.5 127.109375 C 142.503906 127.105469 142.503906 127.101562 142.507812 127.097656 C 142.535156 127.070312 142.558594 127.046875 142.582031 127.019531 C 142.597656 127.003906 142.613281 126.984375 142.628906 126.96875 C 142.648438 126.941406 142.667969 126.917969 142.6875 126.890625 C 142.703125 126.871094 142.71875 126.851562 142.734375 126.832031 C 142.75 126.804688 142.765625 126.777344 142.78125 126.75 C 142.796875 126.730469 142.808594 126.707031 142.820312 126.683594 C 142.839844 126.65625 142.851562 126.625 142.867188 126.59375 C 142.875 126.574219 142.886719 126.554688 142.894531 126.53125 C 142.910156 126.496094 142.925781 126.460938 142.9375 126.421875 C 142.941406 126.40625 142.949219 126.390625 142.953125 126.375 C 142.964844 126.339844 142.976562 126.300781 142.984375 126.261719 C 142.988281 126.246094 142.996094 126.226562 143 126.210938 C 143.003906 126.175781 143.007812 126.144531 143.015625 126.109375 C 143.019531 126.085938 143.023438 126.0625 143.027344 126.039062 C 143.027344 126.011719 143.03125 125.980469 143.03125 125.953125 C 143.035156 125.921875 143.035156 125.894531 143.035156 125.863281 C 143.035156 125.859375 143.039062 125.851562 143.039062 125.84375 L 143.039062 92.480469 L 143.121094 92.480469 C 144.089844 92.480469 144.875 91.695312 144.875 90.730469 C 144.875 89.761719 144.089844 88.976562 143.121094 88.976562 L 139.773438 88.976562 L 139.773438 83.257812 L 163.285156 83.257812 L 163.285156 88.976562 L 152.210938 88.976562 C 151.246094 88.976562 150.460938 89.761719 150.460938 90.730469 C 150.460938 91.695312 151.246094 92.480469 152.210938 92.480469 L 160.019531 92.480469 L 160.019531 105.445312 L 151.109375 113.992188 C 150.414062 114.664062 150.390625 115.769531 151.058594 116.46875 C 151.402344 116.828125 151.863281 117.007812 152.324219 117.007812 C 152.757812 117.007812 153.195312 116.847656 153.535156 116.519531 L 156.542969 113.636719 L 167.160156 103.449219 L 187.5 83.933594 L 254.007812 147.738281 C 254.347656 148.0625 254.785156 148.226562 255.21875 148.226562 C 255.679688 148.226562 256.140625 148.046875 256.484375 147.6875 C 257.152344 146.988281 257.128906 145.882812 256.433594 145.210938 " fill-opacity="1" fill-rule="nonzero"/></g><path fill="#ffffff" d="M 163.632812 208.257812 L 137.878906 208.257812 L 137.878906 146.476562 C 137.878906 145.507812 137.09375 144.722656 136.128906 144.722656 C 135.160156 144.722656 134.375 145.507812 134.375 146.476562 L 134.375 210.007812 C 134.375 210.976562 135.160156 211.757812 136.128906 211.757812 L 163.632812 211.757812 C 164.597656 211.757812 165.382812 210.976562 165.382812 210.007812 C 165.382812 209.042969 164.597656 208.257812 163.632812 208.257812 " fill-opacity="1" fill-rule="nonzero"/><path fill="#ffffff" d="M 247.410156 159.871094 C 246.839844 159.832031 246.292969 160.078125 245.945312 160.523438 L 238.71875 169.777344 L 234.246094 166.285156 L 241.46875 157.03125 C 241.820312 156.582031 241.925781 155.992188 241.75 155.453125 C 241.574219 154.910156 241.140625 154.496094 240.597656 154.339844 C 237.964844 153.582031 235.1875 153.617188 232.566406 154.441406 C 229.878906 155.289062 227.542969 156.914062 225.800781 159.140625 C 223.726562 161.796875 222.691406 165.113281 222.882812 168.476562 C 222.921875 169.207031 223.023438 169.941406 223.183594 170.660156 L 214.300781 178.535156 C 213.960938 178.839844 213.757812 179.257812 213.730469 179.710938 C 213.703125 180.167969 213.855469 180.605469 214.160156 180.949219 C 214.757812 181.621094 215.78125 181.714844 216.488281 181.160156 C 216.519531 181.136719 216.546875 181.113281 216.574219 181.089844 L 224.4375 174.121094 C 224.792969 174.804688 225.207031 175.457031 225.671875 176.074219 L 225.871094 176.328125 L 226.105469 176.582031 C 226.421875 176.910156 226.847656 177.09375 227.304688 177.101562 C 227.761719 177.109375 228.195312 176.9375 228.523438 176.621094 C 229.199219 175.964844 229.214844 174.878906 228.558594 174.203125 L 228.414062 174.03125 C 225.578125 170.304688 225.550781 165.011719 228.496094 161.242188 C 230.554688 158.605469 233.714844 157.132812 236.992188 157.210938 L 230.5 165.527344 C 230.21875 165.886719 230.097656 166.335938 230.152344 166.789062 C 230.207031 167.242188 230.4375 167.644531 230.796875 167.925781 L 237.964844 173.523438 C 238.324219 173.804688 238.769531 173.925781 239.222656 173.871094 C 239.675781 173.816406 240.082031 173.585938 240.363281 173.226562 L 246.855469 164.910156 C 247.726562 168.070312 247.066406 171.496094 245.003906 174.132812 C 242.019531 177.957031 236.855469 179.230469 232.445312 177.238281 C 231.585938 176.847656 230.570312 177.230469 230.183594 178.089844 C 230.074219 178.324219 230.027344 178.582031 230.03125 178.835938 L 223.089844 185.492188 C 222.761719 185.808594 222.574219 186.234375 222.566406 186.691406 C 222.558594 187.148438 222.726562 187.582031 223.042969 187.910156 C 223.378906 188.257812 223.824219 188.433594 224.273438 188.433594 C 224.644531 188.433594 225.015625 188.3125 225.324219 188.070312 C 225.375 188.03125 225.417969 187.992188 225.457031 187.957031 L 232.726562 180.984375 C 235.089844 181.699219 237.585938 181.773438 239.996094 181.195312 C 241.492188 180.835938 242.90625 180.238281 244.199219 179.414062 C 244.585938 179.171875 244.960938 178.90625 245.320312 178.625 C 246.203125 177.933594 247 177.128906 247.699219 176.238281 C 249.4375 174.011719 250.445312 171.347656 250.617188 168.535156 C 250.78125 165.792969 250.140625 163.089844 248.769531 160.71875 C 248.484375 160.226562 247.976562 159.910156 247.410156 159.871094 " fill-opacity="1" fill-rule="nonzero"/><g clip-path="url(#e5e7281392)"><path fill="#ffffff" d="M 206.574219 202.601562 C 206.117188 202.59375 205.6875 202.765625 205.355469 203.082031 C 202.777344 205.566406 196.578125 211.625 184.082031 223.75 C 183.414062 224.398438 183.007812 224.792969 182.957031 224.84375 C 182.015625 225.707031 180.796875 226.15625 179.523438 226.105469 C 178.242188 226.054688 177.058594 225.511719 176.1875 224.570312 C 174.394531 222.632812 174.507812 219.597656 176.441406 217.796875 C 176.515625 217.730469 177.253906 217.082031 178.4375 216.03125 C 183.722656 211.351562 196.316406 200.261719 200.558594 196.496094 C 201.261719 195.871094 201.328125 194.785156 200.699219 194.082031 C 200.398438 193.742188 199.980469 193.539062 199.523438 193.511719 C 199.070312 193.484375 198.628906 193.636719 198.289062 193.941406 C 194.574219 197.238281 187.78125 203.195312 175.238281 214.300781 C 174.140625 215.273438 174.140625 215.273438 174.128906 215.28125 C 170.804688 218.355469 170.601562 223.5625 173.679688 226.890625 C 175.167969 228.5 177.195312 229.433594 179.386719 229.519531 C 179.496094 229.523438 179.601562 229.527344 179.710938 229.527344 C 181.542969 229.527344 183.328125 228.914062 184.769531 227.785156 C 184.945312 227.644531 185.121094 227.496094 185.285156 227.34375 C 185.292969 227.335938 185.292969 227.335938 185.976562 226.675781 C 197.863281 215.136719 204.4375 208.710938 207.726562 205.542969 C 208.058594 205.226562 208.242188 204.800781 208.25 204.34375 C 208.261719 203.886719 208.089844 203.453125 207.773438 203.125 C 207.457031 202.796875 207.03125 202.613281 206.574219 202.601562 " fill-opacity="1" fill-rule="nonzero"/></g><g clip-path="url(#a22c9f0e5a)"><path fill="#ffffff" d="M 245.019531 221.179688 C 245 221.261719 244.9375 221.34375 244.910156 221.371094 L 239.949219 226.023438 C 239.929688 226.042969 239.914062 226.058594 239.894531 226.078125 C 239.792969 226.171875 239.578125 226.304688 239.429688 226.304688 C 239.292969 226.304688 239.082031 226.167969 238.867188 225.9375 L 210.542969 195.742188 C 210.558594 195.71875 210.574219 195.699219 210.589844 195.6875 C 210.597656 195.675781 210.605469 195.667969 210.617188 195.65625 L 212.160156 194.230469 C 212.492188 193.917969 212.683594 193.492188 212.699219 193.039062 C 212.710938 192.582031 212.546875 192.144531 212.238281 191.8125 C 211.921875 191.480469 211.5 191.289062 211.042969 191.273438 C 210.589844 191.261719 210.152344 191.425781 209.820312 191.738281 L 209.527344 191.996094 L 195.636719 177.183594 L 198.765625 174.261719 L 212.933594 189.367188 C 212.878906 189.855469 213.035156 190.351562 213.382812 190.722656 C 213.695312 191.054688 214.121094 191.246094 214.574219 191.261719 C 215.03125 191.273438 215.46875 191.109375 215.800781 190.796875 L 216.234375 190.390625 C 216.238281 190.386719 216.246094 190.382812 216.25 190.375 C 216.273438 190.359375 216.296875 190.34375 216.316406 190.328125 C 216.332031 190.339844 216.347656 190.351562 216.367188 190.371094 L 244.6875 220.566406 C 244.777344 220.664062 245.066406 220.992188 245.019531 221.179688 Z M 244.910156 221.375 C 244.90625 221.375 244.90625 221.375 244.902344 221.378906 C 244.90625 221.378906 244.90625 221.375 244.910156 221.371094 C 244.910156 221.371094 244.910156 221.371094 244.910156 221.375 Z M 239.875 226.097656 C 239.871094 226.101562 239.867188 226.105469 239.867188 226.109375 C 239.867188 226.109375 239.875 226.097656 239.890625 226.082031 C 239.886719 226.085938 239.882812 226.09375 239.875 226.097656 Z M 191.8125 176.054688 C 188.792969 173.734375 184.519531 173.917969 181.703125 176.550781 L 181.691406 176.558594 C 180.945312 177.261719 180.339844 178.105469 179.917969 179.035156 C 179.265625 178.589844 178.371094 178.636719 177.769531 179.195312 C 177.078125 179.84375 177.042969 180.933594 177.6875 181.625 L 178.503906 182.5 L 175.203125 185.582031 L 168.652344 178.566406 L 171.953125 175.484375 L 174.25 177.941406 C 174.566406 178.277344 174.988281 178.472656 175.449219 178.488281 C 175.90625 178.503906 176.34375 178.339844 176.679688 178.023438 C 177.371094 177.378906 177.40625 176.289062 176.761719 175.597656 L 175.53125 174.28125 C 176.449219 173.898438 177.324219 173.320312 178.144531 172.554688 L 178.15625 172.542969 C 179.132812 171.625 179.875 170.480469 180.296875 169.230469 C 180.605469 168.324219 180.746094 167.355469 180.707031 166.414062 L 189.542969 158.160156 C 193.09375 154.84375 199.769531 155.253906 204.75 156.183594 C 205.082031 156.246094 205.414062 156.3125 205.742188 156.382812 C 205.625 156.394531 205.519531 156.40625 205.429688 156.414062 C 202.8125 156.691406 201.039062 157.464844 199.308594 159.085938 L 199.292969 159.097656 C 197.523438 160.757812 196.5 163.011719 196.417969 165.4375 C 196.355469 167.246094 196.816406 168.988281 197.75 170.511719 Z M 218.824219 187.996094 C 218.804688 187.976562 218.785156 187.957031 218.765625 187.9375 C 217.8125 187.011719 216.597656 186.683594 215.417969 187.023438 L 201.257812 171.925781 C 201.898438 171.277344 201.914062 170.21875 201.277344 169.535156 C 200.277344 168.464844 199.796875 167.125 199.851562 165.558594 C 199.902344 164.042969 200.539062 162.640625 201.644531 161.601562 L 201.652344 161.59375 C 202.773438 160.550781 203.855469 160.089844 205.789062 159.835938 C 207.265625 159.640625 209.804688 159.570312 211.886719 159.878906 C 211.921875 159.886719 211.960938 159.890625 211.996094 159.898438 C 212 159.898438 212.003906 159.898438 212.007812 159.898438 C 212.757812 159.988281 213.507812 159.742188 214.058594 159.226562 C 214.558594 158.757812 214.84375 158.125 214.863281 157.441406 C 214.886719 156.761719 214.640625 156.109375 214.175781 155.613281 C 213.882812 155.300781 213.515625 155.066406 213.113281 154.933594 C 213.105469 154.929688 213.097656 154.929688 213.085938 154.925781 C 212.902344 154.867188 212.707031 154.808594 212.503906 154.742188 C 210.53125 154.121094 207.832031 153.265625 205.417969 152.8125 C 201.839844 152.144531 198.617188 151.933594 195.847656 152.195312 C 192.199219 152.539062 189.289062 153.699219 187.203125 155.644531 C 187.203125 155.644531 187.199219 155.648438 187.195312 155.652344 L 177.734375 164.484375 C 177.3125 164.882812 177.117188 165.464844 177.21875 166.035156 C 177.46875 167.476562 176.941406 168.972656 175.808594 170.035156 L 175.796875 170.046875 C 174.667969 171.101562 173.492188 171.542969 172.304688 171.359375 C 172.296875 171.355469 172.285156 171.355469 172.277344 171.355469 C 172.261719 171.351562 172.25 171.351562 172.238281 171.347656 L 172.199219 171.34375 C 172.195312 171.34375 172.191406 171.34375 172.1875 171.34375 L 172.160156 171.34375 C 172.140625 171.339844 172.121094 171.339844 172.097656 171.339844 L 172.085938 171.339844 C 172.082031 171.335938 172.082031 171.335938 172.078125 171.335938 L 172.066406 171.335938 C 172.066406 171.335938 172.054688 171.335938 172.054688 171.335938 L 172.027344 171.335938 C 172.019531 171.335938 172.011719 171.335938 172.003906 171.335938 C 171.976562 171.339844 171.953125 171.339844 171.9375 171.339844 L 171.929688 171.339844 C 171.925781 171.339844 171.921875 171.339844 171.917969 171.339844 C 171.757812 171.351562 171.59375 171.386719 171.441406 171.445312 C 171.4375 171.445312 171.429688 171.449219 171.425781 171.449219 C 171.402344 171.457031 171.382812 171.464844 171.363281 171.476562 C 171.359375 171.476562 171.359375 171.476562 171.355469 171.476562 L 171.347656 171.480469 C 171.328125 171.488281 171.308594 171.5 171.285156 171.511719 C 171.28125 171.511719 171.277344 171.511719 171.273438 171.515625 L 171.269531 171.519531 C 171.246094 171.53125 171.230469 171.539062 171.207031 171.550781 L 171.1875 171.5625 C 171.175781 171.570312 171.160156 171.578125 171.148438 171.585938 C 171.140625 171.589844 171.136719 171.59375 171.128906 171.597656 L 171.113281 171.605469 C 171.113281 171.605469 171.105469 171.609375 171.105469 171.609375 C 171.097656 171.617188 171.085938 171.625 171.074219 171.632812 C 171.0625 171.640625 171.054688 171.648438 171.042969 171.652344 C 171.03125 171.660156 171.019531 171.667969 171.011719 171.675781 C 170.996094 171.6875 170.984375 171.695312 170.980469 171.703125 C 170.964844 171.714844 170.953125 171.722656 170.941406 171.730469 C 170.941406 171.734375 170.9375 171.734375 170.933594 171.738281 L 170.917969 171.75 C 170.917969 171.753906 170.914062 171.753906 170.910156 171.757812 C 170.902344 171.765625 170.894531 171.773438 170.882812 171.78125 C 170.875 171.789062 170.867188 171.796875 170.863281 171.800781 L 165.050781 177.230469 C 164.359375 177.875 164.324219 178.964844 164.96875 179.65625 L 173.863281 189.183594 C 174.175781 189.519531 174.601562 189.710938 175.0625 189.726562 C 175.183594 189.730469 175.308594 189.722656 175.429688 189.699219 C 175.753906 189.640625 176.050781 189.488281 176.292969 189.265625 C 176.292969 189.265625 182.070312 183.863281 182.105469 183.832031 C 182.484375 183.476562 182.683594 182.992188 182.660156 182.503906 C 182.589844 181.207031 183.09375 179.953125 184.042969 179.066406 L 184.046875 179.058594 C 185.820312 177.402344 188.609375 177.5 190.261719 179.269531 C 190.332031 179.34375 190.398438 179.421875 190.464844 179.503906 C 190.753906 179.859375 191.164062 180.078125 191.621094 180.125 C 192.078125 180.171875 192.523438 180.039062 192.882812 179.75 C 192.90625 179.730469 192.9375 179.703125 192.964844 179.675781 C 192.972656 179.671875 192.976562 179.664062 192.984375 179.660156 L 193.136719 179.515625 L 207.300781 194.617188 C 207.179688 194.925781 207.113281 195.246094 207.09375 195.570312 C 207.054688 196.183594 207.179688 197.113281 208.003906 198.023438 C 208.011719 198.035156 208.019531 198.042969 208.027344 198.050781 L 236.375 228.277344 C 237.273438 229.234375 238.300781 229.71875 239.421875 229.722656 C 239.425781 229.722656 239.425781 229.722656 239.429688 229.722656 C 240.851562 229.722656 241.867188 228.914062 242.234375 228.566406 C 242.265625 228.539062 242.292969 228.515625 242.3125 228.492188 L 247.242188 223.871094 C 247.507812 223.625 248.375 222.71875 248.441406 221.292969 C 248.488281 220.203125 248.0625 219.171875 247.179688 218.226562 L 218.824219 187.996094 " fill-opacity="1" fill-rule="nonzero"/></g><path fill="#ffffff" d="M 177.398438 221.234375 C 177.398438 222.578125 178.488281 223.667969 179.832031 223.667969 C 181.179688 223.667969 182.269531 222.578125 182.269531 221.234375 C 182.269531 219.890625 181.179688 218.796875 179.832031 218.796875 C 178.488281 218.796875 177.398438 219.890625 177.398438 221.234375 " fill-opacity="1" fill-rule="nonzero"/><g fill="#ffffff" fill-opacity="1"><g transform="translate(85.402683, 288.152208)"><g><path d="M 27.203125 -15.6875 L 30.390625 -15.6875 L 30.390625 -3.71875 C 28.921875 -2.4375 27.1875 -1.453125 25.1875 -0.765625 C 23.1875 -0.078125 21.078125 0.265625 18.859375 0.265625 C 15.722656 0.265625 12.898438 -0.421875 10.390625 -1.796875 C 7.878906 -3.171875 5.90625 -5.070312 4.46875 -7.5 C 3.039062 -9.9375 2.328125 -12.664062 2.328125 -15.6875 C 2.328125 -18.695312 3.039062 -21.421875 4.46875 -23.859375 C 5.90625 -26.296875 7.878906 -28.203125 10.390625 -29.578125 C 12.898438 -30.953125 15.738281 -31.640625 18.90625 -31.640625 C 21.300781 -31.640625 23.5 -31.257812 25.5 -30.5 C 27.5 -29.738281 29.1875 -28.609375 30.5625 -27.109375 L 28.5 -25 C 26.019531 -27.457031 22.867188 -28.6875 19.046875 -28.6875 C 16.503906 -28.6875 14.207031 -28.125 12.15625 -27 C 10.113281 -25.875 8.507812 -24.316406 7.34375 -22.328125 C 6.175781 -20.347656 5.59375 -18.132812 5.59375 -15.6875 C 5.59375 -13.238281 6.175781 -11.023438 7.34375 -9.046875 C 8.507812 -7.078125 10.109375 -5.523438 12.140625 -4.390625 C 14.171875 -3.253906 16.457031 -2.6875 19 -2.6875 C 22.226562 -2.6875 24.960938 -3.492188 27.203125 -5.109375 Z M 27.203125 -15.6875 "/></g></g></g><g fill="#ffffff" fill-opacity="1"><g transform="translate(120.03367, 288.152208)"><g><path d="M 27.296875 -2.875 L 27.296875 0 L 5.109375 0 L 5.109375 -31.375 L 26.625 -31.375 L 26.625 -28.5 L 8.421875 -28.5 L 8.421875 -17.34375 L 24.640625 -17.34375 L 24.640625 -14.515625 L 8.421875 -14.515625 L 8.421875 -2.875 Z M 27.296875 -2.875 "/></g></g></g><g fill="#ffffff" fill-opacity="1"><g transform="translate(150.005378, 288.152208)"><g><path d="M 24.78125 -8.375 L 7.296875 -8.375 L 3.546875 0 L 0.09375 0 L 14.421875 -31.375 L 17.703125 -31.375 L 32.046875 0 L 28.546875 0 Z M 23.578125 -11.0625 L 16.046875 -27.921875 L 8.515625 -11.0625 Z M 23.578125 -11.0625 "/></g></g></g><g fill="#ffffff" fill-opacity="1"><g transform="translate(182.127522, 288.152208)"><g><path d="M 26.53125 0 L 19.359375 -10.078125 C 18.554688 -9.992188 17.71875 -9.953125 16.84375 -9.953125 L 8.421875 -9.953125 L 8.421875 0 L 5.109375 0 L 5.109375 -31.375 L 16.84375 -31.375 C 20.851562 -31.375 23.992188 -30.414062 26.265625 -28.5 C 28.535156 -26.582031 29.671875 -23.953125 29.671875 -20.609375 C 29.671875 -18.160156 29.050781 -16.09375 27.8125 -14.40625 C 26.570312 -12.71875 24.800781 -11.5 22.5 -10.75 L 30.15625 0 Z M 16.765625 -12.765625 C 19.867188 -12.765625 22.238281 -13.453125 23.875 -14.828125 C 25.519531 -16.203125 26.34375 -18.128906 26.34375 -20.609375 C 26.34375 -23.148438 25.519531 -25.097656 23.875 -26.453125 C 22.238281 -27.816406 19.867188 -28.5 16.765625 -28.5 L 8.421875 -28.5 L 8.421875 -12.765625 Z M 16.765625 -12.765625 "/></g></g></g><g fill="#ffffff" fill-opacity="1"><g transform="translate(214.518465, 288.152208)"><g><path d="M 2.6875 -13.53125 L 14.421875 -13.53125 L 14.421875 -10.75 L 2.6875 -10.75 Z M 2.6875 -13.53125 "/></g></g></g><g fill="#ffffff" fill-opacity="1"><g transform="translate(231.63236, 288.152208)"><g><path d="M 27.203125 -15.6875 L 30.390625 -15.6875 L 30.390625 -3.71875 C 28.921875 -2.4375 27.1875 -1.453125 25.1875 -0.765625 C 23.1875 -0.078125 21.078125 0.265625 18.859375 0.265625 C 15.722656 0.265625 12.898438 -0.421875 10.390625 -1.796875 C 7.878906 -3.171875 5.90625 -5.070312 4.46875 -7.5 C 3.039062 -9.9375 2.328125 -12.664062 2.328125 -15.6875 C 2.328125 -18.695312 3.039062 -21.421875 4.46875 -23.859375 C 5.90625 -26.296875 7.878906 -28.203125 10.390625 -29.578125 C 12.898438 -30.953125 15.738281 -31.640625 18.90625 -31.640625 C 21.300781 -31.640625 23.5 -31.257812 25.5 -30.5 C 27.5 -29.738281 29.1875 -28.609375 30.5625 -27.109375 L 28.5 -25 C 26.019531 -27.457031 22.867188 -28.6875 19.046875 -28.6875 C 16.503906 -28.6875 14.207031 -28.125 12.15625 -27 C 10.113281 -25.875 8.507812 -24.316406 7.34375 -22.328125 C 6.175781 -20.347656 5.59375 -18.132812 5.59375 -15.6875 C 5.59375 -13.238281 6.175781 -11.023438 7.34375 -9.046875 C 8.507812 -7.078125 10.109375 -5.523438 12.140625 -4.390625 C 14.171875 -3.253906 16.457031 -2.6875 19 -2.6875 C 22.226562 -2.6875 24.960938 -3.492188 27.203125 -5.109375 Z M 27.203125 -15.6875 "/></g></g></g><g fill="#ffffff" fill-opacity="1"><g transform="translate(266.263346, 288.152208)"><g><path d="M 18.828125 0.265625 C 15.710938 0.265625 12.894531 -0.425781 10.375 -1.8125 C 7.851562 -3.207031 5.878906 -5.113281 4.453125 -7.53125 C 3.035156 -9.945312 2.328125 -12.664062 2.328125 -15.6875 C 2.328125 -18.695312 3.035156 -21.410156 4.453125 -23.828125 C 5.878906 -26.253906 7.851562 -28.160156 10.375 -29.546875 C 12.894531 -30.941406 15.710938 -31.640625 18.828125 -31.640625 C 21.929688 -31.640625 24.726562 -30.953125 27.21875 -29.578125 C 29.71875 -28.203125 31.679688 -26.296875 33.109375 -23.859375 C 34.546875 -21.421875 35.265625 -18.695312 35.265625 -15.6875 C 35.265625 -12.664062 34.546875 -9.9375 33.109375 -7.5 C 31.679688 -5.070312 29.71875 -3.171875 27.21875 -1.796875 C 24.726562 -0.421875 21.929688 0.265625 18.828125 0.265625 Z M 18.828125 -2.6875 C 21.304688 -2.6875 23.546875 -3.242188 25.546875 -4.359375 C 27.546875 -5.484375 29.113281 -7.039062 30.25 -9.03125 C 31.382812 -11.019531 31.953125 -13.238281 31.953125 -15.6875 C 31.953125 -18.132812 31.382812 -20.347656 30.25 -22.328125 C 29.113281 -24.316406 27.546875 -25.875 25.546875 -27 C 23.546875 -28.125 21.304688 -28.6875 18.828125 -28.6875 C 16.347656 -28.6875 14.097656 -28.125 12.078125 -27 C 10.054688 -25.875 8.46875 -24.316406 7.3125 -22.328125 C 6.164062 -20.347656 5.59375 -18.132812 5.59375 -15.6875 C 5.59375 -13.238281 6.164062 -11.019531 7.3125 -9.03125 C 8.46875 -7.039062 10.054688 -5.484375 12.078125 -4.359375 C 14.097656 -3.242188 16.347656 -2.6875 18.828125 -2.6875 Z M 18.828125 -2.6875 "/></g></g></g></svg>